<svg id="visual" viewBox="0 0 900 600" width="900" height="600" xmlns="http://www.w3.org/2000/svg" xmlns:xlink="http://www.w3.org/1999/xlink" version="1.1"><path d="M0 546L30 547.3C60 548.7 120 551.3 180 548.8C240 546.3 300 538.7 360 538.8C420 539 480 547 540 550.7C600 554.3 660 553.7 720 550.3C780 547 840 541 870 538L900 535L900 601L870 601C840 601 780 601 720 601C660 601 600 601 540 601C480 601 420 601 360 601C300 601 240 601 180 601C120 601 60 601 30 601L0 601Z" fill="#073881" stroke-linecap="round" stroke-linejoin="miter"></path></svg>