<svg id="visual" viewBox="0 0 900 600" width="900" height="600" xmlns="http://www.w3.org/2000/svg" xmlns:xlink="http://www.w3.org/1999/xlink" version="1.1"><path d="M0 379L21.5 394.3C43 409.7 86 440.3 128.8 446.7C171.7 453 214.3 435 257.2 438C300 441 343 465 385.8 465.2C428.7 465.3 471.3 441.7 514.2 431.8C557 422 600 426 642.8 443C685.7 460 728.3 490 771.2 485.2C814 480.3 857 440.7 878.5 420.8L900 401L900 601L878.5 601C857 601 814 601 771.2 601C728.3 601 685.7 601 642.8 601C600 601 557 601 514.2 601C471.3 601 428.7 601 385.8 601C343 601 300 601 257.2 601C214.3 601 171.7 601 128.8 601C86 601 43 601 21.5 601L0 601Z" fill="#ecbc0b" stroke-linecap="round" stroke-linejoin="miter"></path></svg>